# xmcd
#
# Track frame offsets:
#	150
#	24168
#	43704
#	70911
#	83304
#	113935
#	135409
#	155761
#	175851
#	199926
#	216234
#
# Disc length: 3314 seconds
#
# Revision: 2
# Processed by: cddbd v1.5.1PL0 Copyright (c) Steve Scherf et al.
# Submitted via: dBpowerAMP V4.0
#
DISCID=8f0cf00b
DTITLE=Various Artist - Natural Blues II - The Blues Makers - CD 1
DYEAR=2001
DGENRE=Blues
TTITLE0=Dibi Dib Rek - Ismaël Lô
TTITLE1=African Dream - Wasis Diop
TTITLE2=Djam Leeli - Baaba Maal
TTITLE3=Laku Tshori Langa - Manhattan Brothers
TTITLE4=Nwahulwana - Orchestra Marrabenta Star de Moçambique - Nwahulwana
TTITLE5=Khalmane - Nothembi Mkhwebane
TTITLE6=Beb Bo Ndero - Boubacar Traoré
TTITLE7=Ne La Thiasa - Cheikh Lo
TTITLE8=Okavanga Slide - Felicity Fox
TTITLE9=Summertime - Angelique Kidjo
TTITLE10=Ai Du - Ry Cooder And Ali Farka Toure - Ai Du
EXTD=
EXTT0=
EXTT1=
EXTT2=
EXTT3=
EXTT4=
EXTT5=
EXTT6=
EXTT7=
EXTT8=
EXTT9=
EXTT10=
PLAYORDER=
